<svg xmlns="http://www.w3.org/2000/svg" xmlns:xlink="http://www.w3.org/1999/xlink" width="202.69" height="64.404" viewBox="0 0 202.69 64.404"><defs><clipPath id="a"><rect width="202.69" height="64.404" fill="none"/></clipPath></defs><g clip-path="url(#a)"><path d="M22.239,83.733h0l.376,2.422c2.269-.8,3.569-.4,5.71-.037s4.271,1.206,6.5,1.206c2.462,0,4.811-.911,7.17-1.3a11.336,11.336,0,0,1,5.289.2l.376-2.422a15.284,15.284,0,0,0-6.084-.1c-2.257.356-4.516,1.2-6.774,1.2-2.3,0-4.607-.869-6.91-1.244a11.454,11.454,0,0,0-5.652.075m0,4.328h0l.376,2.422c2.269-.8,3.569-.4,5.71-.037s4.271,1.206,6.5,1.206c2.462,0,4.811-.911,7.17-1.3a11.336,11.336,0,0,1,5.289.2l.376-2.422a15.276,15.276,0,0,0-6.084-.1c-2.257.356-4.516,1.2-6.774,1.2-2.3,0-4.607-.869-6.91-1.244a11.458,11.458,0,0,0-5.652.075m0,4.328h0l.376,2.423c2.269-.8,3.569-.4,5.71-.037s4.271,1.206,6.5,1.206c2.462,0,4.811-.911,7.17-1.3a11.341,11.341,0,0,1,5.289.2l.376-2.422a15.284,15.284,0,0,0-6.084-.1c-2.257.357-4.516,1.2-6.774,1.2-2.3,0-4.607-.869-6.91-1.244a11.463,11.463,0,0,0-5.652.075M52.666,83.65h0c.015,4.82,2.917,9.166,4.4,10.951-1.662-3.861-3.447-6.851-2.171-12.157a22.347,22.347,0,0,1,1.9-5.033l2.5-4.17c1.5,2.37,4.1,7.095,4.643,9.484a12.762,12.762,0,0,1-.186,7.052,23.431,23.431,0,0,1-1.6,3.9c-.216.49-.268.662-.519,1.141l1.779-2.689a15.7,15.7,0,0,0,2.234-12.659c-.759-3.724-4.248-11.27-6.371-13.3-.919.91-3.524,5.822-4.2,7.3A24.742,24.742,0,0,0,52.666,83.65M59.4,96.008s.24-.607.685-1.544c.852-1.795,2.2-4.85,2.239-7.523-.1-2.557-1.546-6.711-2.949-8.289-.935,1.089-3.386,4.983-3.23,8.521.074,3.772,2.215,6.289,3.255,8.835m-49-19.175,2.383-11L8.42,67.07,6.984,72.827,4.425,84.448l4.29-.8L7.69,97.006l7.4-16.322,2.1-4.238ZM69.9,99.8H0V59.942H16.268c.028,5.955.45,9.737,4.333,14.673A18.64,18.64,0,0,0,53.58,62.672v-2.73H69.9Z" transform="translate(0 -35.394)" fill="#0089b6" fill-rule="evenodd"/><path d="M39.633,23.7h0c0,6.437.227,10.409,4.286,15.568a18.934,18.934,0,0,0,14.354,6.656A18.72,18.72,0,0,0,76.947,27.256q0-13.629,0-27.256H39.57q.032,11.852.063,23.7M60.757,11.189q-.009,3.2-.018,6.393l5,.007c.37-1.529.229-3.434,2.791-3.464a2.789,2.789,0,0,1,2.763,3.359,2.782,2.782,0,1,1,0,5.52c.163,1.8-.842,3.385-2.766,3.361-2.084-.025-2.748-1.657-2.748-3.463l-5.038,0V35.217c1.186.2,1.532-.169,2.555.587a2.8,2.8,0,0,1,1.1,2.042c.114,1.935-1.386,3.091-3.356,2.918a2.784,2.784,0,1,1-5.521,0,3.1,3.1,0,0,1-2.306-.555,2.756,2.756,0,0,1-.126-4.237,3.125,3.125,0,0,1,2.338-.72V22.9H50.793a3.406,3.406,0,0,1-.646,2.46,2.742,2.742,0,0,1-4.189.08,2.875,2.875,0,0,1-.685-2.438,2.783,2.783,0,1,1,.011-5.523,2.791,2.791,0,0,1,4.891-2.336c.768,1.037.434,1.174.647,2.432l4.574.009.037-6.419c-4.718-.018-4.045-5.971.095-5.511-.179-3.569,4.984-4.972,5.551,0a2.785,2.785,0,0,1,2.288,4.9c-.8.684-1.431.494-2.61.627" transform="translate(-23.365)" fill="#005ca9" fill-rule="evenodd"/><path d="M128.606,92.583h0a24.728,24.728,0,0,1,2.408-10.172c.679-1.48,3.284-6.392,4.2-7.3,2.123,2.029,5.612,9.574,6.371,13.3a15.692,15.692,0,0,1-2.234,12.659l-1.779,2.711c.252-.48.3-.674.52-1.163a23.481,23.481,0,0,0,1.6-3.9,12.763,12.763,0,0,0,.187-7.053c-.54-2.389-3.144-7.114-4.643-9.483-1.888,3.154-3.472,5.369-4.4,9.2-1.275,5.306.553,8.355,2.216,12.217-1.485-1.785-4.431-6.191-4.446-11.011m6.737,12.381c.509-1.554,2.879-5.169,2.925-8.972-.239-3.668-1.893-7.252-2.951-8.389-.935,1.089-3.385,4.965-3.228,8.5.073,3.772,2.252,6.378,3.255,8.857" transform="translate(-75.938 -44.349)" fill="#fc0" fill-rule="evenodd"/><path d="M16.783,85.3l2.384-11.02L14.8,75.515l-1.437,5.757L10.81,92.892l4.288-.778-1.023,13.337,7.4-16.323,2.1-4.238Z" transform="translate(-6.383 -43.861)" fill="#e3000f" fill-rule="evenodd"/><path d="M248,105.273c.012-.823.026-2.468.04-3.7h-4.471c-.022,1.234-.042,2.88-.059,3.7Z" transform="translate(-143.788 -59.974)" fill="#005ca9" fill-rule="evenodd"/><path d="M255.964,115.782h0c.017,3.7.017,6.377.017,8.692a4.109,4.109,0,0,1-8.218-.02c0-2.346.027-4.97.064-8.672h-4.5c-.043,3.291-.067,5.84-.067,8.9,0,5.2,3.551,8.09,8.482,8.09,5.359,0,8.648-3.259,8.648-8.11,0-2.853-.027-5.586-.046-8.877Z" transform="translate(-143.637 -68.366)" fill="#005ca9" fill-rule="evenodd"/><path d="M278.578,105.273h0c0-.823-.007-2.468-.007-3.7h-4.406c.014,1.234.024,2.88.033,3.7Z" transform="translate(-161.887 -59.974)" fill="#005ca9" fill-rule="evenodd"/><path d="M453.51,101.57h4.044l9.107,15.275h.2V101.57h3.616v22.738h-3.847L457.522,109h-.166v15.309H453.51Z" transform="translate(-267.785 -59.974)" fill="#005ca9" fill-rule="evenodd"/><path d="M421.275,120.42h0v3.888H407.269V101.57h13.809v3.749h-9.6v5.624h9.173v3.68h-9.173v5.8Z" transform="translate(-240.481 -59.974)" fill="#005ca9" fill-rule="evenodd"/><path d="M362.313,101.57h0v22.738h-4.076V109.1h-.1l-5.1,15.2h-3.518l-5.1-15.2h-.1v15.2h-4.01V101.57h5.555l5.523,17.219,5.557-17.219Z" transform="translate(-200.948 -59.974)" fill="#005ca9" fill-rule="evenodd"/><path d="M310.413,120.255h0v4.08H296.965V101.5h4.5v18.758Z" transform="translate(-175.349 -59.931)" fill="#005ca9" fill-rule="evenodd"/><path d="M187.705,101.322v22.817h6.543c7.89.069,11.8-4.838,11.8-11.46,0-11.479-9.972-11.545-18.346-11.357m6.805,18.632h-2.6V105.541c.724-.034,1.578-.068,2.6-.068,4.57,0,7.233,2.47,7.233,7.206,0,4.151-2.663,7.308-7.233,7.274" transform="translate(-110.834 -59.805)" fill="#005ca9" fill-rule="evenodd"/><path d="M482.481,69.6v2.236h-8.639V58.421h8.618l.02,2.274-6.049,0v3.352h6.028V66.19h-6.028v3.378Z" transform="translate(-279.79 -34.496)" fill="#0089b6" fill-rule="evenodd"/><path d="M447.432,66.183h-1.739v5.65h-2.772V58.421h2.772l.042,5.592h1.659l3.093-5.592h3.237L449.375,65l4.956,6.837h-3.095Z" transform="translate(-261.532 -34.496)" fill="#0089b6" fill-rule="evenodd"/><path d="M418.415,66.373a4.88,4.88,0,0,0,2.367-3.884c0-2.792-1.943-4.066-5.421-4.066-2.246,0-3.663.041-4.694.081V71.835h2.61V67.324h2.994l2.306,4.511h3.115Zm-2.1-1.274h-3.035V60.729c.4-.04.91-.04,1.9-.04,1.72,0,2.973.648,2.973,2.064a2.74,2.74,0,0,1-1.839,2.346" transform="translate(-242.487 -34.497)" fill="#0089b6" fill-rule="evenodd"/><path d="M391.576,69.568h0v2.266h-8.617V58.422h8.5v2.185h-5.908v3.439h5.644V66.19h-5.644v3.378Z" transform="translate(-226.126 -34.496)" fill="#0089b6" fill-rule="evenodd"/><path d="M334.157,58.421h2.831l2.125,10.561h.141l2.994-10.339h1.922l3.015,10.339h.142l2.083-10.561h2.711l-3.054,13.413h-3.621l-2.286-7.909h-.121l-2.448,7.909h-3.4Z" transform="translate(-197.31 -34.496)" fill="#0089b6" fill-rule="evenodd"/><path d="M316.36,60.666h-3.843V71.834h-2.772V60.666H305.9V58.421H316.36Z" transform="translate(-180.626 -34.496)" fill="#0089b6" fill-rule="evenodd"/><path d="M279.4,58.326c-1.336,0-2.691.039-4.025.141v13.31H279.4c4.854.041,7.262-2.852,7.262-6.756,0-4.389-2.408-6.695-7.262-6.695m.162,10.984h-1.6v-8.5c.446-.02.971-.041,1.6-.041,2.812,0,4.45,1.457,4.45,4.248a4.111,4.111,0,0,1-4.45,4.289" transform="translate(-162.603 -34.44)" fill="#0089b6" fill-rule="evenodd"/><path d="M246.85,58.422h-3.439l-4.289,13.412h2.428l1.173-3.682h4.734l1.195,3.682h2.689Zm-3.479,7.708,1.679-5.158h.1l1.658,5.158Z" transform="translate(-141.195 -34.497)" fill="#0089b6" fill-rule="evenodd"/><path d="M225.674,60.666h0V58.421H215.215v2.245h3.843V71.834h2.772V60.666Z" transform="translate(-127.078 -34.496)" fill="#0089b6" fill-rule="evenodd"/><path d="M187.7,70.847h0l.708-1.982a9.869,9.869,0,0,0,3.742.849c1.356,0,2.245-.546,2.245-1.435,0-.992-.87-1.3-2.548-1.9-1.72-.627-3.986-1.355-3.986-4.026,0-2.143,1.639-4.025,5.26-4.025a8.017,8.017,0,0,1,3.722.91l-.667,2a9.3,9.3,0,0,0-3.237-.627c-1.476,0-2.589.566-2.589,1.557,0,1.011,1.052,1.4,2.549,1.942,2.225.789,4.228,1.5,4.228,3.863,0,2.65-2.1,3.986-4.957,3.986a9.987,9.987,0,0,1-4.47-1.113" transform="translate(-110.834 -34.439)" fill="#0089b6" fill-rule="evenodd"/></g></svg>