<svg xmlns="http://www.w3.org/2000/svg" width="586.444" height="586.444" viewBox="0 0 586.444 586.444"><g transform="translate(-2 -2)"><path d="M578.67,2H11.774A9.765,9.765,0,0,0,2,11.774v566.9a9.765,9.765,0,0,0,9.774,9.774h566.9a9.765,9.765,0,0,0,9.774-9.774V11.774A9.765,9.765,0,0,0,578.67,2ZM168.159,568.9V549.348a68.506,68.506,0,0,1,68.419-68.419H353.867a68.506,68.506,0,0,1,68.419,68.419V568.9Zm-48.87-195.481H99.741V275.674h19.548ZM138.837,217.03h312.77V461.381H138.837Zm146.611-68.419a9.774,9.774,0,1,1,9.774,9.774A9.778,9.778,0,0,1,285.448,148.611ZM471.155,275.674H490.7v97.741H471.155ZM568.9,568.9H441.833V549.348a87.818,87.818,0,0,0-32.792-68.419h52.34a9.765,9.765,0,0,0,9.774-9.774V392.963h29.322a9.765,9.765,0,0,0,9.774-9.774V265.9a9.765,9.765,0,0,0-9.774-9.774H471.155v-48.87a9.765,9.765,0,0,0-9.774-9.774H305V176.135a29.322,29.322,0,1,0-19.548,0v21.347H129.063a9.765,9.765,0,0,0-9.774,9.774v48.87H89.967a9.765,9.765,0,0,0-9.774,9.774V383.189a9.765,9.765,0,0,0,9.774,9.774h29.322v78.193a9.765,9.765,0,0,0,9.774,9.774H181.4a87.818,87.818,0,0,0-32.792,68.419V568.9H21.548V99.741H568.9Zm0-488.7H21.548V21.548H568.9Z" fill="#fff"/><rect width="19" height="19" transform="translate(41.444 41.444)" fill="#fff"/><rect width="19" height="19" transform="translate(80.444 41.444)" fill="#fff"/><rect width="19" height="19" transform="translate(119.444 41.444)" fill="#fff"/><rect width="293" height="19" transform="translate(256.444 41.444)" fill="#fff"/><path d="M88.712,111.532l13.821-13.821-27.3-27.3,27.3-27.3L88.712,29.293l-27.3,27.3-27.3-27.3L20.293,43.114l27.3,27.3-27.3,27.3,13.821,13.821,27.3-27.3Z" transform="translate(160.504 239.471)" fill="#fff"/><path d="M49.114,111.532l27.3-27.3,27.3,27.3,13.821-13.821-27.3-27.3,27.3-27.3L103.712,29.293l-27.3,27.3-27.3-27.3L35.293,43.114l27.3,27.3-27.3,27.3Z" transform="translate(292.115 239.471)" fill="#fff"/><path d="M152.063,117.193a9.765,9.765,0,0,0,9.774-9.774,68.419,68.419,0,0,0-136.837,0,9.765,9.765,0,0,0,9.774,9.774ZM93.419,58.548a48.946,48.946,0,0,1,47.883,39.1H45.526A48.965,48.965,0,0,1,93.419,58.548Z" transform="translate(201.804 324.641)" fill="#fff"/></g></svg>