<svg id="eiqhDjGn2We1" xmlns="http://www.w3.org/2000/svg" xmlns:xlink="http://www.w3.org/1999/xlink" viewBox="0 0 586.444 586.444" shape-rendering="geometricPrecision" text-rendering="geometricPrecision" project-id="d776ebbbdccf433089d76d5e2e4fed78" export-id="97fbd3fef4a148f08bc74dba4e698d0d" cached="false">
<style><![CDATA[
#eiqhDjGn2We8_to {animation: eiqhDjGn2We8_to__to 900ms linear 5 normal forwards}@keyframes eiqhDjGn2We8_to__to { 0% {transform: translate(160.504px,239.471px)} 22.222222% {transform: translate(178.837696px,260.5937px)} 44.444444% {transform: translate(160.786831px,239.471px)} 100% {transform: translate(160.786831px,239.471px)}} #eiqhDjGn2We8_ts {animation: eiqhDjGn2We8_ts__ts 900ms linear 5 normal forwards}@keyframes eiqhDjGn2We8_ts__ts { 0% {transform: scale(1,1)} 22.222222% {transform: scale(0.7,0.7)} 44.444444% {transform: scale(1,1)} 100% {transform: scale(1,1)}} #eiqhDjGn2We9_to {animation: eiqhDjGn2We9_to__to 900ms linear 5 normal forwards}@keyframes eiqhDjGn2We9_to__to { 0% {transform: translate(292.115px,239.471px)} 44.444444% {transform: translate(292.115px,239.471px)} 66.666667% {transform: translate(325.434px,274.67875px)} 88.888889% {transform: translate(292.182407px,239.474px)} 100% {transform: translate(292.182407px,239.474px)}} #eiqhDjGn2We9_ts {animation: eiqhDjGn2We9_ts__ts 900ms linear 5 normal forwards}@keyframes eiqhDjGn2We9_ts__ts { 0% {transform: scale(1,1)} 44.444444% {transform: scale(1,1)} 66.666667% {transform: scale(0.5,0.5)} 88.888889% {transform: scale(1,1)} 100% {transform: scale(1,1)}} #eiqhDjGn2We17_tr {animation: eiqhDjGn2We17_tr__tr 900ms linear 5 normal forwards}@keyframes eiqhDjGn2We17_tr__tr { 0% {transform: translate(135.33781px,207.03926px) rotate(720deg);animation-timing-function: cubic-bezier(0.415,0.08,0.115,0.955)} 100% {transform: translate(135.33781px,207.03926px) rotate(635.844156deg)}} #eiqhDjGn2We18_tr {animation: eiqhDjGn2We18_tr__tr 900ms linear 5 normal forwards}@keyframes eiqhDjGn2We18_tr__tr { 0% {transform: translate(11.12px,29.9px) rotate(-720deg);animation-timing-function: cubic-bezier(0.415,0.08,0.115,0.955)} 100% {transform: translate(11.12px,29.9px) rotate(-635.844156deg)}}
]]></style>
<defs><linearGradient id="eiqhDjGn2We11-fill" x1="0.5" y1="0" x2="0.5" y2="1" spreadMethod="pad" gradientUnits="objectBoundingBox" gradientTransform="translate(0 0)"><stop id="eiqhDjGn2We11-fill-0" offset="0%" stop-color="rgba(255,255,255,0)"/><stop id="eiqhDjGn2We11-fill-1" offset="100%" stop-color="#010022"/></linearGradient></defs><g transform="translate(-2-2)"><path d="M578.67,2L11.774,2C9.181042,1.997609,6.693597,3.026599,4.860098,4.860098s-2.862489,4.320944-2.860098,6.913902v566.9c-.002391,2.592958,1.026599,5.080403,2.860098,6.913902s4.320944,2.862489,6.913902,2.860098h566.9c2.592958.002391,5.080403-1.026599,6.913902-2.860098s2.862489-4.320944,2.860098-6.913902v-566.9c.002393-2.593652-1.027146-5.081704-2.861511-6.915319s-4.322838-2.862135-6.916489-2.858681ZM168.159,568.9v-19.552c.047932-37.766898,30.652102-68.371068,68.419-68.419h117.289c37.766898.047932,68.371068,30.652102,68.419,68.419v19.552h-254.127Zm-48.87-195.481h-19.548v-97.745h19.548v97.745ZM138.837,217.03h312.77v244.351h-312.77v-244.351Zm146.611-68.419c0-5.398031,4.375969-9.774,9.774-9.774s9.774,4.375969,9.774,9.774-4.375969,9.774-9.774,9.774c-5.397117-.002207-9.771793-4.376883-9.774-9.774ZM471.155,275.674h19.545v97.741h-19.545v-97.741ZM568.9,568.9h-127.067v-19.552c-.006597-26.595203-12.065081-51.754676-32.792-68.419h52.34c2.592958.002391,5.080403-1.026599,6.913902-2.860098s2.862489-4.320944,2.860098-6.913902v-78.192h29.322c2.592958.002391,5.080403-1.026599,6.913902-2.860098s2.862489-4.320944,2.860098-6.913902v-117.289c.002391-2.592958-1.026599-5.080403-2.860098-6.913902s-4.320944-2.862489-6.913902-2.860098h-29.322v-48.87c.002391-2.592958-1.026599-5.080403-2.860098-6.913902s-4.320944-2.862489-6.913902-2.860098h-156.381v-21.347c13.464141-4.760293,21.540646-18.528242,19.125721-32.603455s-14.618843-24.363592-28.899721-24.363592-26.484796,10.288379-28.899721,24.363592s5.66158,27.843162,19.125721,32.603455v21.347h-156.389c-2.592958-.002391-5.080403,1.026599-6.913902,2.860098s-2.862489,4.320944-2.860098,6.913902v48.87h-29.322c-2.592958-.002391-5.080403,1.026599-6.913902,2.860098s-2.862489,4.320944-2.860098,6.913902v117.289c-.002391,2.592958,1.026599,5.080403,2.860098,6.913902s4.320944,2.862489,6.913902,2.860098h29.322v78.193c-.002391,2.592958,1.026599,5.080403,2.860098,6.913902s4.320944,2.862489,6.913902,2.860098h52.337c-20.726919,16.664324-32.785403,41.823797-32.792,68.419v19.551h-127.06v-469.159h547.352v469.159Zm0-488.7h-547.352v-58.652h547.352v58.652Z" fill="#65c8e8"/><rect width="19" height="19" rx="0" ry="0" transform="translate(41.444 41.444)" fill="#65c8e8"/><rect width="19" height="19" rx="0" ry="0" transform="translate(80.444 41.444)" fill="#65c8e8"/><rect width="19" height="19" rx="0" ry="0" transform="translate(119.444 41.444)" fill="#65c8e8"/><rect width="293" height="19" rx="0" ry="0" transform="translate(256.444 41.444)" fill="#65c8e8"/><g id="eiqhDjGn2We8_to" transform="translate(160.504,239.471)"><g id="eiqhDjGn2We8_ts" transform="scale(1,1)"><path d="M88.712,111.532l13.821-13.821-27.3-27.3l27.3-27.3L88.712,29.293l-27.3,27.3-27.3-27.3L20.293,43.114l27.3,27.3-27.3,27.3l13.821,13.821l27.3-27.3l27.298,27.297Z" transform="translate(0,0)" fill="#65c8e8"/></g></g><g id="eiqhDjGn2We9_to" transform="translate(292.115,239.471)"><g id="eiqhDjGn2We9_ts" transform="scale(1,1)"><path d="M49.114,111.532l27.3-27.3l27.3,27.3l13.821-13.821-27.3-27.3l27.3-27.3-13.823-13.818-27.3,27.3-27.3-27.3L35.293,43.114l27.3,27.3-27.3,27.3l13.821,13.818Z" transform="translate(0,0)" fill="#65c8e8"/></g></g><path d="M152.063,117.193c2.592958.002391,5.080403-1.026599,6.913902-2.860098s2.862489-4.320944,2.860098-6.913902c-.144071-37.684386-30.733839-68.15743-68.4185-68.15743s-68.274429,30.473044-68.4185,68.15743c-.002391,2.592958,1.026599,5.080403,2.860098,6.913902s4.320944,2.862489,6.913902,2.860098h117.289ZM93.419,58.548c23.213503.029627,43.213376,16.360998,47.883,39.1h-95.776c4.677046-22.738642,24.678359-39.067778,47.893-39.1Z" transform="translate(201.804 324.641)" fill="#65c8e8"/></g></svg>
