<svg xmlns="http://www.w3.org/2000/svg" width="18.555" height="14.555" viewBox="0 0 18.555 14.555"><g transform="translate(-7 -9)"><g transform="translate(7 9)"><path d="M24.627,8.855H7.928A.928.928,0,0,1,7.928,7h16.7a.928.928,0,1,1,0,1.855Z" transform="translate(-7 -7)" fill="#fff"/></g><g transform="translate(7 15.35)"><path d="M24.627,13.355H7.928a.928.928,0,1,1,0-1.855h16.7a.928.928,0,0,1,0,1.855Z" transform="translate(-7 -11.5)" fill="#fff"/></g><g transform="translate(7 23.699)"><path d="M24.627,17.855H7.928a.928.928,0,1,1,0-1.855h16.7a.928.928,0,0,1,0,1.855Z" transform="translate(-7 -18)" fill="#fff"/></g></g></svg>