<svg xmlns="http://www.w3.org/2000/svg" width="36" height="35" viewBox="0 0 36 35">
  <path id="circle-arrownav-left-big-primary" d="M17.5,0A17.756,17.756,0,0,0,0,18,17.756,17.756,0,0,0,17.5,36,17.756,17.756,0,0,0,35,18,17.756,17.756,0,0,0,17.5,0Zm7.181,15.575a1.461,1.461,0,0,1-1.347.925H18.958V27a1.459,1.459,0,1,1-2.917,0V16.5H11.667a1.461,1.461,0,0,1-1.347-.925,1.531,1.531,0,0,1,.316-1.635l5.833-6a1.428,1.428,0,0,1,2.062,0l5.833,6A1.531,1.531,0,0,1,24.681,15.575Z" transform="translate(0 35) rotate(-90)" fill="#151b35"/>
</svg>
