<svg xmlns="http://www.w3.org/2000/svg" width="50" height="50" viewBox="0 0 50 50">
  <path id="circle-arrow-big-white" d="M25,50A25.007,25.007,0,0,1,15.269,1.965,25.007,25.007,0,0,1,34.731,48.036,24.843,24.843,0,0,1,25,50ZM20.926,14.557A1.247,1.247,0,0,0,19.68,15.8a1.172,1.172,0,0,0,.212.685l5.764,8.654L19.893,33.8a1.172,1.172,0,0,0-.212.685,1.247,1.247,0,0,0,1.246,1.245h3.736a1.244,1.244,0,0,0,1.033-.56l6.226-9.339a1.215,1.215,0,0,0,0-1.37l-6.226-9.339a1.244,1.244,0,0,0-1.033-.56Z" fill="#fff"/>
</svg>
