<svg xmlns="http://www.w3.org/2000/svg" width="84" height="84" viewBox="0 0 84 84"><path d="M42,84A42.011,42.011,0,0,1,25.652,3.3a42.011,42.011,0,0,1,32.7,77.4A41.737,41.737,0,0,1,42,84ZM30.542,19a2.186,2.186,0,0,0-.484.055l-9.381,2.165A2.155,2.155,0,0,0,19,23.329,41.816,41.816,0,0,0,60.853,65.182,2.158,2.158,0,0,0,62.964,63.5l2.164-9.381a2.194,2.194,0,0,0-1.264-2.489l-10.1-4.33a2.163,2.163,0,0,0-2.525.623l-4.474,5.466A33.513,33.513,0,0,1,30.78,37.41l5.467-4.474a2.168,2.168,0,0,0,.622-2.525l-4.33-10.1A2.177,2.177,0,0,0,30.542,19Z" fill="#65c8e8"/></svg>