<svg xmlns="http://www.w3.org/2000/svg" width="31.5" height="31.5" viewBox="0 0 31.5 31.5"><path d="M18,2.25A15.75,15.75,0,1,0,33.75,18,15.751,15.751,0,0,0,18,2.25Zm1.42,22.971a1.985,1.985,0,0,1-2.166,1.99,2.065,2.065,0,1,1,.12-4.127,2,2,0,0,1,2.046,2.138Zm3.424-8.951a10.169,10.169,0,0,1-1.786,1.6l-.921.633a2.438,2.438,0,0,0-.879,1.216,6.954,6.954,0,0,0-.148,1.315.287.287,0,0,1-.316.274H16.045c-.288,0-.323-.169-.316-.253a5.759,5.759,0,0,1,.7-2.9,9.232,9.232,0,0,1,2.5-2.138,2.909,2.909,0,0,0,.668-.682,2.439,2.439,0,0,0,.563-1.4,2.487,2.487,0,0,0-.513-1.6,2.03,2.03,0,0,0-1.814-.8,1.984,1.984,0,0,0-1.786,1.041,3.434,3.434,0,0,0-.309,1.92H12.3c0-2.391.626-3.916,1.948-4.816a5.843,5.843,0,0,1,3.361-.879,6.784,6.784,0,0,1,4.352,1.252,4.354,4.354,0,0,1,1.73,3.7A4.226,4.226,0,0,1,22.845,16.27Z" transform="translate(-2.25 -2.25)" fill="#fff"/></svg>