<svg xmlns="http://www.w3.org/2000/svg" width="562.53" height="444.864" viewBox="0 0 562.53 444.864"><g transform="translate(-547 1333)"><path d="M146.5,444.864H55.607a55.339,55.339,0,0,1-31.09-9.5A55.762,55.762,0,0,1,4.37,410.9,55.269,55.269,0,0,1,0,389.255V159.872A13.9,13.9,0,0,1,5.366,148.9L193.043,2.933a13.886,13.886,0,0,1,17.071,0L397.791,148.9a13.907,13.907,0,0,1,5.366,10.968V342.808H344.1a36.4,36.4,0,1,0,0,72.79h52.428c-.878,1.63-1.845,3.226-2.872,4.748a55.77,55.77,0,0,1-24.466,20.147,55.261,55.261,0,0,1-21.645,4.37H256.5V282a9.511,9.511,0,0,0-9.5-9.5H156a9.51,9.51,0,0,0-9.5,9.5V444.863ZM402.8,395.6H344.1a16.4,16.4,0,1,1,0-32.791h59.053v26.447a56.638,56.638,0,0,1-.356,6.342Z" transform="translate(547 -1333)" fill="#65c8e8"/><path d="M180.548,58.211a65.581,65.581,0,0,0-127.012,0H-35.748a16.4,16.4,0,0,0-16.4,16.4A16.4,16.4,0,0,0-35.748,91H53.511a65.581,65.581,0,0,0,127.037,0S185.342,72.4,180.548,58.211ZM117.016,107.4a32.79,32.79,0,1,1,32.79-32.79,32.79,32.79,0,0,1-32.79,32.79Z" transform="translate(926.852 -1028.402)" fill="#65c8e8"/></g></svg>