<svg xmlns="http://www.w3.org/2000/svg" width="22.989" height="30.129" viewBox="0 0 22.989 30.129"><g transform="translate(-10.6 -7.782)" fill="none"><path d="M22.095,7.782a5.87,5.87,0,1,1-5.862,5.862,5.866,5.866,0,0,1,5.862-5.862Zm7.356,30.129H14.738A4.142,4.142,0,0,1,10.6,33.773a11.495,11.495,0,0,1,22.989,0A4.142,4.142,0,0,1,29.451,37.911Z" stroke="none"/><path d="M 22.09455490112305 9.78204345703125 C 19.96490478515625 9.78204345703125 18.23231506347656 11.51463317871094 18.23231506347656 13.64428329467773 C 18.23231506347656 15.78294372558594 19.96490478515625 17.52286338806152 22.09455490112305 17.52286338806152 C 24.22420501708984 17.52286338806152 25.95679473876953 15.78294372558594 25.95679473876953 13.64428329467773 C 25.95679473876953 11.51463317871094 24.22420501708984 9.78204345703125 22.09455490112305 9.78204345703125 M 22.09455490112305 24.27877426147461 C 16.8592357635498 24.27877426147461 12.59999465942383 28.53801345825195 12.59999465942383 33.77333450317383 C 12.59999465942383 34.95227432250977 13.55913543701172 35.91140365600586 14.73807525634766 35.91140365600586 L 29.45104598999023 35.91140365600586 C 30.62998580932617 35.91140365600586 31.58911514282227 34.95227432250977 31.58911514282227 33.77333450317383 C 31.58911514282227 28.53801345825195 27.32987403869629 24.27877426147461 22.09455490112305 24.27877426147461 M 22.09455490112305 7.78204345703125 C 25.32940483093262 7.78204345703125 27.95679473876953 10.40933227539062 27.95679473876953 13.64428329467773 C 27.95679473876953 16.8791332244873 25.32940483093262 19.52286338806152 22.09455490112305 19.52286338806152 C 18.85970497131348 19.52286338806152 16.23231506347656 16.8791332244873 16.23231506347656 13.64428329467773 C 16.23231506347656 10.40933227539062 18.85970497131348 7.78204345703125 22.09455490112305 7.78204345703125 Z M 22.09455490112305 22.27877426147461 C 28.43296432495117 22.27877426147461 33.58911514282227 27.43492317199707 33.58911514282227 33.77333450317383 C 33.58911514282227 36.05585479736328 31.73356628417969 37.91140365600586 29.45104598999023 37.91140365600586 L 14.73807525634766 37.91140365600586 C 12.4555549621582 37.91140365600586 10.59999465942383 36.05585479736328 10.59999465942383 33.77333450317383 C 10.59999465942383 27.43492317199707 15.75614547729492 22.27877426147461 22.09455490112305 22.27877426147461 Z" stroke="none" fill="#ffffff"/></g></svg>